<?xml version="1.0" encoding="utf-8"?>
<!-- Generator: $$$/GeneralStr/196=Adobe Illustrator 27.6.0, SVG Export Plug-In . SVG Version: 6.00 Build 0)  -->
<svg version="1.1" id="Calque_1" xmlns="http://www.w3.org/2000/svg" xmlns:xlink="http://www.w3.org/1999/xlink" x="0px" y="0px"
	 viewBox="0 0 131.3 131.3" style="enable-background:new 0 0 131.3 131.3;" xml:space="preserve">
<style type="text/css">
	.st0{fill:#FFFFFF;}
</style>
<path class="st0" d="M131.3,68.1c0-5.6-1.9-10.8-5.1-14.9c1.6-6.2,0.8-12.7-2.5-18.3c-2.7-4.7-6.9-8.3-11.9-10.3
	c-1.7-6.2-5.7-11.4-11.3-14.6c-4.7-2.7-10.1-3.8-15.5-3c-4.4-4.3-10.4-7-17-7c-5.6,0-10.8,1.9-14.9,5.1c-6-1.6-12.5-0.9-18.3,2.4
	c-4.7,2.7-8.3,6.9-10.3,11.9C18.7,21.1,13.3,25,10,30.7C7.2,35.6,6.3,41,7,46.2c-4.3,4.4-7,10.4-7,17C0,68.8,1.9,74,5.1,78.1
	c-1.6,6.2-0.8,12.7,2.5,18.3c2.7,4.7,6.9,8.3,11.9,10.3c1.7,6.2,5.7,11.4,11.3,14.6c3.7,2.2,7.9,3.3,12.1,3.3c1.1,0,2.3-0.1,3.4-0.2
	c4.4,4.3,10.4,7,17,7c5.6,0,10.8-1.9,14.9-5.1c2,0.5,4.1,0.8,6.2,0.8c4.1,0,8.3-1,12.1-3.2c4.7-2.7,8.3-6.9,10.3-11.9
	c5.9-1.6,11.3-5.5,14.6-11.2c2.8-4.9,3.7-10.3,3-15.5C128.6,80.8,131.3,74.7,131.3,68.1z M108.1,107.1c-0.7,0.3-1.5,0.6-2.2,0.8
	c-0.7,0.2-1.5,0.4-2.2,0.5c-4.5,0.8-9.3,0-13.5-2.4c-1-0.6-2-1.3-2.9-2.1c-0.9-0.8-1.8-1.6-2.5-2.5c-2-2.4-3.4-5.2-4.1-8.3
	c-0.2-0.7-0.3-1.5-0.4-2.2c0.5,0.2,1,0.3,1.6,0.5c2.1,0.6,4.3,0.9,6.5,0.9c3.3,0,6.5-0.7,9.4-1.9c1.1,0.5,2.3,0.9,3.5,1.2
	c0.9,0.2,1.7,0.4,2.6,0.5c0.8,0.1,1.6,0.2,2.3,0.2c0.3,0,0.6,0,0.9,0c5,0,9.6-1.5,13.5-4.1c0,3.5-0.8,7.1-2.7,10.3
	C115.5,102.6,112,105.5,108.1,107.1z M81.6,122.8c-0.8-0.1-1.5-0.2-2.3-0.4c-0.7-0.2-1.5-0.4-2.2-0.7c-4.3-1.6-8-4.6-10.5-8.8
	c-0.6-1-1.1-2.1-1.5-3.2c-0.4-1.1-0.7-2.3-0.9-3.4c-0.5-2.9-0.4-5.8,0.4-8.7c0-0.2,0.1-0.4,0.2-0.5c0.3-1.2,0.8-2.3,1.3-3.3
	c0.2-0.4,0.5-0.9,0.7-1.3c2.9,0,5.7-0.6,8.3-1.6c0.3-0.1,0.6-0.2,0.9-0.4c0,0.4,0.1,0.8,0.1,1.2c0.7,5.4,3.2,10.5,7.2,14.3
	c0.6,0.6,1.3,1.2,2,1.8c0.6,0.5,1.3,0.9,1.9,1.3c0.3,0.2,0.5,0.3,0.8,0.5c3.8,2.2,8,3.2,12.1,3.2c0.5,0,1.1,0,1.6-0.1
	c-1.8,3.1-4.3,5.8-7.5,7.6C90.4,122.6,85.9,123.4,81.6,122.8z M11,94.4C8.8,90.5,7.9,86,8.5,81.6c0.1-0.8,0.2-1.5,0.4-2.3
	C9,79.2,9,79.1,9,79c0.2-0.6,0.4-1.2,0.6-1.8c1.6-4.4,4.7-8.1,8.8-10.5c1-0.6,2.1-1.1,3.2-1.5c1.1-0.4,2.3-0.7,3.4-0.9
	c2.9-0.5,5.8-0.4,8.7,0.4c0.2,0,0.4,0.1,0.5,0.2c1.2,0.3,2.3,0.8,3.3,1.3c1.7,0.8,3.3,1.9,4.6,3.2c0,0.8,0.1,1.7,0.3,2.5
	c0.2,1,0.4,2,0.7,3c0.1,0.4,0.2,0.8,0.4,1.2c-0.4,0-0.8,0-1.2,0c-0.9,0-1.8,0.1-2.7,0.2c-1.1,0.1-2.1,0.3-3.2,0.6
	c-4.3,1.2-8.1,3.4-11.1,6.6c-0.6,0.6-1.2,1.3-1.8,2c-0.5,0.6-0.9,1.3-1.3,1.9c-0.2,0.3-0.3,0.5-0.5,0.8c-2.4,4.2-3.5,9-3.2,13.7
	C15.5,100.1,12.9,97.6,11,94.4z M23.2,24.2c0.7-0.3,1.5-0.6,2.2-0.8c0.7-0.2,1.5-0.4,2.2-0.5c1.1-0.2,2.3-0.3,3.4-0.3
	c3.4,0,6.9,0.9,10.1,2.7c1,0.6,2,1.3,2.9,2.1c0.9,0.8,1.8,1.6,2.5,2.5c2,2.4,3.4,5.2,4.1,8.3c0.3,1.2,0.5,2.3,0.5,3.5
	c0.1,2.3-0.1,4.6-0.8,6.9c-0.2,0.7-0.5,1.4-0.8,2.1c0,0,0,0,0,0c-0.7,0.7-1.3,1.4-2,2.1c-0.3,0.4-0.7,0.9-1,1.3
	c-0.2-0.4-0.4-0.9-0.6-1.3c-0.3-0.7-0.7-1.4-1.1-2.1c-0.5-0.8-1-1.5-1.5-2.2c-3.3-4.3-8-7.5-13.4-8.8c-0.9-0.2-1.7-0.4-2.6-0.5
	C26.7,39.1,26,39,25.2,39c-0.3,0-0.6,0-0.9,0c-5,0-9.6,1.5-13.5,4.1c0-3.5,0.8-7.1,2.7-10.3C15.8,28.7,19.3,25.8,23.2,24.2z M47,8.3
	c0.9,0,1.8,0.1,2.6,0.2c0.8,0.1,1.5,0.3,2.3,0.4c0.7,0.2,1.5,0.4,2.2,0.7c4.3,1.6,8,4.6,10.5,8.8c0.6,1,1.1,2.1,1.5,3.2
	c0.4,1.1,0.7,2.3,0.9,3.4c0.5,3.1,0.3,6.3-0.5,9.2c-0.3,1.1-0.8,2.3-1.3,3.3c-1,2-2.4,3.9-4.1,5.6c-0.5,0.5-1.1,1-1.7,1.5
	c-0.2,0.2-0.4,0.3-0.6,0.5c-0.6,0.2-1.1,0.4-1.7,0.7c-0.7,0.3-1.4,0.6-2,1c0.1-0.7,0.2-1.3,0.2-2c0.1-0.8,0.1-1.6,0.1-2.3
	c0-0.9-0.1-1.8-0.2-2.7c-0.7-5.4-3.2-10.5-7.2-14.3c-0.6-0.6-1.3-1.2-2-1.8c-0.6-0.5-1.3-0.9-1.9-1.3c-0.3-0.2-0.5-0.3-0.8-0.5
	c-4.3-2.5-9.1-3.5-13.7-3.2c1.8-3.1,4.3-5.8,7.5-7.6C40.1,9.2,43.6,8.3,47,8.3z M98.6,13.5c3.9,2.2,6.9,5.7,8.5,9.7
	c0.3,0.7,0.6,1.5,0.8,2.2c0,0.1,0.1,0.2,0.1,0.3c0.2,0.6,0.3,1.2,0.4,1.9c0.8,4.6,0,9.4-2.4,13.5c-0.6,1-1.3,2-2,2.9
	c-2.2,0.3-4.3,0.9-6.3,1.7c-2.9-1.2-6.1-1.9-9.4-1.9c-1.9,0-3.8,0.2-5.6,0.7c-0.7,0.2-1.4,0.4-2.1,0.6c-0.1,0-0.2,0.1-0.2,0.1
	c0.1,0,0.2-0.1,0.2-0.1c0.8-0.5,1.5-1,2.2-1.5c4.3-3.3,7.5-8,8.8-13.4c0.2-0.9,0.4-1.7,0.5-2.6c0.1-0.8,0.2-1.6,0.2-2.3
	c0-0.3,0-0.6,0-0.9c0-5-1.5-9.6-4.1-13.5c0.1,0,0.2,0,0.3,0C92,10.8,95.5,11.7,98.6,13.5z M120.3,37c2.3,3.9,3.1,8.3,2.5,12.7
	c-3.8-3.2-8.6-5.3-13.8-5.7c0.2-0.3,0.3-0.5,0.5-0.8c2.4-4.2,3.5-9,3.2-13.7C115.8,31.2,118.4,33.8,120.3,37z M108.4,65.6
	c0,0.3,0.1,0.6,0.1,0.9c0,0.4,0.1,0.9,0.1,1.3c0,0.1,0,0.2,0,0.3c0,0.2,0,0.3,0,0.5c0,0.5,0,0.9-0.1,1.4c0,0.2-0.1,0.5-0.1,0.7
	c-0.7,5.7-3.8,10.6-8.2,13.8c-0.6,0.4-1.1,0.8-1.7,1.1c-0.3,0.2-0.5,0.3-0.8,0.4c-0.4,0.2-0.8,0.4-1.2,0.6c-0.4,0.2-0.7,0.3-1.1,0.5
	c-0.8,0.3-1.6,0.6-2.5,0.7c-1.5,0.4-3,0.6-4.6,0.6c-2.4,0-4.7-0.4-6.8-1.2c1.7-1.3,3.2-2.9,4.5-4.6c0.3-0.4,0.5-0.7,0.8-1.1
	c0.2-0.2,0.3-0.5,0.5-0.7c0.2-0.4,0.5-0.8,0.7-1.2c0.1-0.2,0.2-0.5,0.4-0.7c0.3-0.5,0.5-1,0.7-1.6c0.8-2.1,1.4-4.3,1.7-6.6
	c0.1-0.8,0.1-1.5,0.1-2.3c0-0.1,0-0.1,0-0.2c0,0,0,0,0-0.1c0-0.6,0-1.3-0.1-1.9c0-0.1,0-0.3,0-0.4c-0.1-0.9-0.2-1.8-0.4-2.7
	C90,61.6,89.5,60.3,89,59c-0.3-0.8-0.7-1.5-1.1-2.3c-0.3-0.5-0.5-1-0.8-1.4c-0.1-0.2-0.2-0.3-0.3-0.5c-0.4-0.6-0.8-1.1-1.2-1.7
	c-0.7-0.9-1.5-1.7-2.3-2.5c-0.2-0.2-0.4-0.4-0.6-0.6c-0.4-0.3-0.8-0.7-1.2-1c0.3-0.1,0.7-0.2,1-0.4c1.8-0.5,3.7-0.8,5.7-0.8
	c1.6,0,3.1,0.2,4.6,0.6c0.8,0.2,1.7,0.5,2.5,0.7c0.4,0.1,0.8,0.3,1.1,0.5c0.4,0.2,0.8,0.4,1.2,0.6c0.4,0.2,0.7,0.4,1.1,0.6
	c0.6,0.4,1.3,0.8,1.8,1.3C104.8,55.3,107.7,60.1,108.4,65.6z M70.1,88c-0.9,0.2-1.9,0.3-2.8,0.3c-0.2,0-0.5,0-0.7,0
	c-0.6,0-1.2,0-1.8-0.1c-0.3,0-0.6-0.1-0.9-0.1c-0.9-0.1-1.8-0.3-2.7-0.6c-0.5-0.1-1-0.3-1.5-0.5c-0.8-0.3-1.6-0.6-2.4-1
	c-0.2-0.1-0.4-0.2-0.6-0.3c-0.7-0.4-1.4-0.9-2.1-1.4C54,84,53.4,83.5,52.8,83c-0.2-0.2-0.5-0.4-0.7-0.7c-0.6-0.6-1.1-1.2-1.6-1.8
	c-0.3-0.4-0.7-0.9-1-1.4c-0.5-0.8-0.9-1.6-1.3-2.4c-0.6-1.4-1.1-2.8-1.5-4.3c-0.1-0.4-0.1-0.8-0.2-1.2c-0.1-1-0.2-2-0.2-3
	c0-0.1,0-0.3,0-0.4c0.1-2.6,0.6-5.1,1.5-7.4c0.1-0.3,0.3-0.5,0.4-0.8c1.2-2.5,2.8-4.6,4.8-6.4c0.6-0.5,1.2-1.1,1.9-1.5
	c1.7-1.2,3.6-2.1,5.6-2.8c1-0.3,2-0.5,3.1-0.7c1-0.1,1.9-0.2,3-0.2c1.5,0,3,0.2,4.4,0.5c0.3,0.1,0.5,0.1,0.8,0.2
	c0.5,0.1,1.1,0.3,1.6,0.5c0.7,0.3,1.4,0.6,2.1,0.9c0.7,0.3,1.3,0.7,2,1.1c0.6,0.4,1.1,0.7,1.6,1.1c0.8,0.6,1.5,1.3,2.2,2
	c0.2,0.3,0.5,0.5,0.7,0.8c1,1.2,1.9,2.6,2.7,4c0.4,0.7,0.7,1.5,1,2.3c0,0.1,0.1,0.3,0.1,0.4c0.4,1.1,0.6,2.3,0.8,3.5
	c0.1,0.9,0.2,1.9,0.2,2.9c0,0,0,0,0,0.1s0,0,0,0.1c0,0.1,0,0.1,0,0.2c0,0.9-0.1,1.8-0.2,2.6c-0.2,1.2-0.4,2.3-0.8,3.4
	c0,0.1-0.1,0.2-0.1,0.2c-0.3,0.9-0.7,1.9-1.1,2.7c-0.2,0.4-0.4,0.8-0.7,1.2c-0.4,0.7-0.9,1.4-1.4,2.1c-0.5,0.6-1,1.2-1.5,1.7
	c-0.2,0.2-0.4,0.4-0.6,0.6c-0.6,0.6-1.3,1.2-2,1.7c-0.3,0.2-0.6,0.4-1,0.7c-0.4,0.3-0.8,0.5-1.2,0.8c-0.2,0.1-0.4,0.2-0.6,0.3
	c0,0-0.1,0-0.1,0.1c-0.7,0.3-1.4,0.6-2.1,0.9c0,0,0,0-0.1,0c-0.9,0.3-1.9,0.6-2.9,0.8C70.3,88,70.2,88,70.1,88z M80.4,8.2
	c0.6,0.5,1.2,1,1.8,1.5c0.5,0.5,1.1,1.1,1.6,1.7c2.9,3.5,4.7,8,4.7,12.9c0,1.2-0.1,2.4-0.3,3.6c-0.2,1.2-0.5,2.3-0.9,3.4
	c-1.1,3-2.8,5.6-5.1,7.7c-0.9,0.8-1.8,1.6-2.8,2.2c-1.9,1.3-4.1,2.2-6.3,2.7c-0.6,0.1-1.2,0.3-1.8,0.3c-0.2,0-0.4-0.1-0.5-0.1
	c-0.9-0.1-1.7-0.2-2.6-0.3c-0.4,0-0.9,0-1.3,0c-0.2,0-0.4,0-0.6,0c0.4-0.5,0.8-1,1.1-1.5c0.4-0.6,0.9-1.3,1.2-2
	c0.4-0.8,0.8-1.6,1.2-2.4c2.1-5,2.5-10.6,1-16c-0.2-0.9-0.5-1.7-0.9-2.5c-0.3-0.7-0.6-1.4-1-2.1c-0.1-0.3-0.3-0.5-0.4-0.8
	c-2.5-4.3-6.1-7.6-10.3-9.6C60.8,5,64.3,4,68.1,4C72.7,4,77,5.6,80.4,8.2z M9.7,49.2c0.5-0.5,1.1-1.1,1.7-1.6
	c3.5-2.9,8-4.6,12.9-4.6c1.2,0,2.4,0.1,3.6,0.3c1.2,0.2,2.3,0.5,3.4,0.9c3,1.1,5.6,2.8,7.7,5.1c0.8,0.9,1.6,1.8,2.2,2.8
	c1.3,1.9,2.2,4,2.7,6.3c0,0.2,0.1,0.4,0.1,0.6c-0.3,0.8-0.6,1.6-0.8,2.5c-0.2,0.9-0.5,1.8-0.6,2.7c0,0.1,0,0.2-0.1,0.3
	c-0.1-0.1-0.2-0.1-0.2-0.2c-0.6-0.4-1.3-0.9-2-1.2c-0.8-0.4-1.6-0.8-2.4-1.2c-1-0.4-2-0.8-3.1-1.1c-4.3-1.2-8.8-1.1-12.9,0.1
	c-0.9,0.2-1.7,0.5-2.5,0.9c-0.7,0.3-1.4,0.6-2.1,1c-0.3,0.1-0.5,0.3-0.8,0.4c-4.2,2.4-7.5,6-9.6,10.3C5,70.5,4,67,4,63.2
	c0-4.6,1.6-8.9,4.2-12.3C8.7,50.3,9.2,49.7,9.7,49.2z M23.4,105.9c0-0.1-0.1-0.2-0.1-0.3c-0.2-0.6-0.3-1.2-0.4-1.9
	c-0.8-4.6,0-9.4,2.4-13.5c0.6-1,1.3-2,2-2.9c0.8-0.9,1.6-1.7,2.5-2.5c2.2-1.9,4.9-3.3,7.7-4c0.2-0.1,0.4-0.1,0.6-0.1
	c1.2-0.3,2.3-0.5,3.5-0.5c0.4,0,0.8,0,1.2,0c0.9,0,1.8,0.1,2.7,0.2c0.9,1.6,2,3.1,3.3,4.4c0.6,0.6,1.2,1.2,1.8,1.7
	c-0.7,0.4-1.4,0.9-2.1,1.4c-4.3,3.3-7.5,8-8.8,13.4c-0.2,0.9-0.4,1.7-0.5,2.6c-0.1,0.8-0.2,1.6-0.2,2.3c0,0.3,0,0.6,0,0.9
	c0,5,1.5,9.6,4.1,13.5c-3.6,0-7.1-0.9-10.3-2.7c-3.9-2.2-6.9-5.7-8.5-9.7C23.9,107.4,23.6,106.6,23.4,105.9z M50.9,123.1
	c-0.6-0.5-1.2-1-1.8-1.5c-0.5-0.5-1.1-1.1-1.6-1.7c-2.9-3.5-4.7-8-4.7-12.9c0-1.2,0.1-2.4,0.3-3.6c0.2-1.2,0.5-2.3,0.9-3.4
	c1.1-3,2.8-5.6,5.1-7.7c0.9-0.8,1.8-1.6,2.8-2.2c0.7-0.4,1.4-0.8,2.1-1.2c2.2,1.3,4.5,2.2,7,2.8c0.4,0.1,0.8,0.2,1.3,0.3
	c-0.2,0.4-0.4,0.9-0.6,1.4c-0.4,1-0.8,2-1.1,3.1c-1.2,4.3-1.1,8.8,0.1,12.9c0.2,0.9,0.5,1.7,0.9,2.5c0.3,0.7,0.6,1.4,1,2.1
	c0.1,0.3,0.3,0.5,0.4,0.8c2.5,4.3,6.1,7.6,10.3,9.6c-3,1.8-6.5,2.8-10.3,2.8C58.6,127.3,54.3,125.7,50.9,123.1z M121.6,82.2
	c-0.5,0.5-1.1,1.1-1.7,1.6c-3.5,2.9-8,4.6-12.9,4.6c-1.2,0-2.4-0.1-3.6-0.3c-0.4-0.1-0.7-0.1-1.1-0.2c0.2-0.1,0.4-0.3,0.6-0.4
	c4.8-3.7,8.2-9.1,9.2-15.3c0.1-0.7,0.2-1.5,0.3-2.2c0-0.2,0-0.4,0-0.6c0-0.4,0-0.8,0-1.2c0-0.2,0-0.4,0-0.6c0-0.2,0-0.3,0-0.5
	c0-0.7-0.1-1.5-0.2-2.2c-0.8-6.1-3.9-11.5-8.3-15.3c-0.5-0.4-1-0.8-1.6-1.2c1.1-0.3,2.3-0.4,3.5-0.5c0.4,0,0.8-0.1,1.2-0.1
	c5.8,0,11,2.4,14.7,6.3c0.5,0.5,1,1.1,1.5,1.7c0.5,0.6,0.9,1.3,1.3,1.9c1.8,3,2.8,6.5,2.8,10.3c0,4.6-1.6,8.9-4.2,12.3
	C122.7,81,122.2,81.6,121.6,82.2z"/>
</svg>
