<?xml version="1.0" encoding="utf-8"?>
<!-- Generator: $$$/GeneralStr/196=Adobe Illustrator 27.6.0, SVG Export Plug-In . SVG Version: 6.00 Build 0)  -->
<svg version="1.1" id="Calque_1" xmlns="http://www.w3.org/2000/svg" xmlns:xlink="http://www.w3.org/1999/xlink" x="0px" y="0px"
	 viewBox="0 0 91.2 91.2" style="enable-background:new 0 0 91.2 91.2;" xml:space="preserve">
<style type="text/css">
	.st0{fill:#15B681;}
</style>
<g>
	<path class="st0" d="M63.8,1.5H27.4c-5.4,0-9.8,4.4-9.8,9.8v68.6c0,5.4,4.4,9.8,9.8,9.8h36.4c5.4,0,9.8-4.4,9.8-9.8V11.3
		C73.6,5.9,69.2,1.5,63.8,1.5z M27.4,9.5h36.4c1,0,1.8,0.8,1.8,1.8v47.2h-40V11.3C25.6,10.3,26.4,9.5,27.4,9.5z M63.8,81.7H27.4
		c-1,0-1.8-0.8-1.8-1.8V66.5h40v13.4C65.6,80.9,64.8,81.7,63.8,81.7z"/>
	<path class="st0" d="M45.6,69.3c-2.5,0-4.5,2-4.5,4.5s2,4.5,4.5,4.5s4.5-2,4.5-4.5S48.1,69.3,45.6,69.3z"/>
</g>
</svg>
